<svg version="1.1" xmlns="http://www.w3.org/2000/svg" style="display: block;" viewBox="0 0 2048 1117" width="1408" height="768" preserveAspectRatio="none">
<defs>
	<linearGradient id="Gradient1" gradientUnits="userSpaceOnUse" x1="1010.57" y1="376.607" x2="938.793" y2="333.238">
		<stop class="stop0" offset="0" stop-opacity="1" stop-color="rgb(243,128,118)"/>
		<stop class="stop1" offset="1" stop-opacity="1" stop-color="rgb(178,91,171)"/>
	</linearGradient>
	<linearGradient id="Gradient2" gradientUnits="userSpaceOnUse" x1="1228.47" y1="550.785" x2="1190.6" y2="597.194">
		<stop class="stop0" offset="0" stop-opacity="1" stop-color="rgb(253,194,87)"/>
		<stop class="stop1" offset="1" stop-opacity="1" stop-color="rgb(250,216,141)"/>
	</linearGradient>
	<linearGradient id="Gradient3" gradientUnits="userSpaceOnUse" x1="1237.54" y1="565.919" x2="1111.58" y2="702.297">
		<stop class="stop0" offset="0" stop-opacity="1" stop-color="rgb(255,177,92)"/>
		<stop class="stop1" offset="1" stop-opacity="1" stop-color="rgb(214,31,133)"/>
	</linearGradient>
	<linearGradient id="Gradient4" gradientUnits="userSpaceOnUse" x1="770.1" y1="515.058" x2="655.687" y2="511.107">
		<stop class="stop0" offset="0" stop-opacity="1" stop-color="rgb(34,121,131)"/>
		<stop class="stop1" offset="1" stop-opacity="1" stop-color="rgb(10,73,133)"/>
	</linearGradient>
	<linearGradient id="Gradient5" gradientUnits="userSpaceOnUse" x1="708.263" y1="552.67" x2="645.764" y2="590.027">
		<stop class="stop0" offset="0" stop-opacity="1" stop-color="rgb(64,147,126)"/>
		<stop class="stop1" offset="1" stop-opacity="1" stop-color="rgb(35,124,132)"/>
	</linearGradient>
	<linearGradient id="Gradient6" gradientUnits="userSpaceOnUse" x1="931.03" y1="607.184" x2="766.724" y2="733.382">
		<stop class="stop0" offset="0" stop-opacity="1" stop-color="rgb(109,169,120)"/>
		<stop class="stop1" offset="1" stop-opacity="1" stop-color="rgb(6,110,134)"/>
	</linearGradient>
	<linearGradient id="Gradient7" gradientUnits="userSpaceOnUse" x1="808.214" y1="562.145" x2="952.545" y2="377.989">
		<stop class="stop0" offset="0" stop-opacity="1" stop-color="rgb(12,91,200)"/>
		<stop class="stop1" offset="1" stop-opacity="1" stop-color="rgb(61,148,223)"/>
	</linearGradient>
</defs>
<path transform="translate(0,0)" fill="rgb(31,117,132)" d="M 753.065 452.168 C 738.404 429.952 723.544 389.537 715.009 364.524 C 704.398 333.423 698.422 283.072 731.724 263.305 C 756.247 248.749 787.114 254.885 813.414 261.128 C 822.163 262.451 854.743 272.393 862.183 276.603 C 876.645 281.435 893.017 288.813 907.269 294.858 C 911.63 282.932 917.966 264.675 923.447 253.779 C 924.895 260.932 908.802 288.402 909.672 297.126 C 913.363 297.989 914.511 295.824 917.367 297.055 C 919.771 298.092 922.163 299.256 924.519 300.401 C 929.222 289.835 933.919 274.207 938.827 264.799 L 940.022 264.656 C 937.13 272.178 933.903 280.164 931.376 287.763 L 931.397 288.577 C 931.469 292.796 930.198 297.049 928.272 300.779 L 928.647 301.549 L 928.35 302.122 C 930.148 298.949 931.331 295.071 933.725 294.094 L 937.709 284.252 C 942.445 279.37 942.927 270.716 946.096 268.703 C 951.285 272.827 951.081 281.812 953.546 287.701 C 956.098 293.8 951.003 295.401 952.509 302.053 C 950.847 306.627 949.363 310.755 947.367 315.218 C 942.374 328.786 938.803 343.152 933.876 356.74 C 928.105 373.804 924.89 389.24 919.75 405.49 C 933.585 402.569 945.588 400.886 959.236 398.42 C 949.544 406.974 940.812 416.559 933.195 427.004 C 926.057 436.784 921.007 448.428 909.296 452.114 C 901.356 475.626 890.129 549.419 900.516 572.992 C 901.51 575.249 904.342 578.227 906.156 580.073 C 937.922 607.814 971.047 634.78 1011.47 648.975 C 1014.83 650.156 1019.41 651.247 1022.51 652.615 C 1041.85 653.73 1053.28 653.729 1063.87 636.126 C 1073 608.596 1048.14 598.429 1027.99 589.844 L 1029.78 589.266 C 1026.48 587.024 1023.45 586.939 1019.44 585.926 C 1017.32 583.986 1017.78 584.945 1017.24 582.339 C 1027.1 573.765 1035.01 578.373 1023.13 559.951 L 1037.66 564.53 L 1039.03 563.454 C 1036.46 562.051 1029 559.995 1025.92 558.959 C 1013.62 554.822 1001.34 551.774 989.946 545.374 C 987.893 539.489 968.252 534.365 968.834 524.712 C 980.196 533.983 993.821 543.339 1008.21 547.064 L 1008.25 546.912 C 1007.2 544.988 987.341 536.426 984.193 534.966 C 990.088 531.689 998.207 526.678 1002.43 521.402 L 1004.36 519.876 C 1007.79 520.928 1008.56 521.133 1012.12 521.331 L 1012.92 521.369 C 1052.15 534.543 1096.98 540.991 1117.56 582.437 C 1121.63 590.7 1124.18 599.629 1125.07 608.796 C 1130.02 632.753 1120.91 661.718 1107.47 681.48 C 1102.93 688.154 1088.31 707.276 1081.84 711.296 C 1075.07 719.926 1061.28 729.646 1057.33 734.798 C 1049.46 745.381 1032.24 754.033 1022.73 762.661 C 1014.04 767.68 1004.29 774.913 995.624 780.49 C 981.004 789.812 966.03 798.569 950.738 806.742 C 950.337 808.898 950.959 809.563 951.984 811.522 C 949.02 811.483 947.926 811.426 945.324 809.979 C 937.201 813.582 917.132 824.014 910.225 828.8 L 909.801 828.13 C 907.048 828.087 890.929 835.53 887.084 837.163 C 696.578 918.101 668.328 832.049 752.761 670.053 C 740.034 665.637 719.73 657.486 708.269 651.323 C 707.714 651.118 707.163 650.903 706.616 650.68 C 678.56 639.493 629.875 609.728 618.707 580.382 C 612.73 564.677 613.513 554.643 619.511 539.765 C 631.784 514.739 659.557 494.702 684.296 483.381 C 698.796 473.663 737.015 458.212 753.065 452.168 z M 895.169 782.711 C 899.129 781.936 906.648 778.21 910.614 776.41 L 911.975 777.124 C 955.93 754.632 978.86 741.254 1016.33 708.021 C 1021.84 703.509 1026.64 699.827 1031.39 694.494 C 1041.06 685.141 1074.66 650.266 1063.87 636.126 C 1053.28 653.729 1041.85 653.73 1022.51 652.615 C 1019.41 651.247 1014.83 650.156 1011.47 648.975 C 971.047 634.78 937.922 607.814 906.156 580.073 C 904.342 578.227 901.51 575.249 900.516 572.992 C 890.129 549.419 901.356 475.626 909.296 452.114 C 921.007 448.428 926.057 436.784 933.195 427.004 C 940.812 416.559 949.544 406.974 959.236 398.42 C 945.588 400.886 933.585 402.569 919.75 405.49 C 924.89 389.24 928.105 373.804 933.876 356.74 C 938.803 343.152 942.374 328.786 947.367 315.218 C 949.363 310.755 950.847 306.627 952.509 302.053 C 951.003 295.401 956.098 293.8 953.546 287.701 C 951.081 281.812 951.285 272.827 946.096 268.703 C 942.927 270.716 942.445 279.37 937.709 284.252 L 933.725 294.094 C 931.331 295.071 930.148 298.949 928.35 302.122 L 928.647 301.549 L 928.272 300.779 C 930.198 297.049 931.469 292.796 931.397 288.577 L 931.376 287.763 C 933.903 280.164 937.13 272.178 940.022 264.656 L 938.827 264.799 C 933.919 274.207 929.222 289.835 924.519 300.401 C 922.163 299.256 919.771 298.092 917.367 297.055 C 914.511 295.824 913.363 297.989 909.672 297.126 C 908.802 288.402 924.895 260.932 923.447 253.779 C 917.966 264.675 911.63 282.932 907.269 294.858 C 893.017 288.813 876.645 281.435 862.183 276.603 C 854.743 272.393 822.163 262.451 813.414 261.128 C 787.114 254.885 756.247 248.749 731.724 263.305 C 698.422 283.072 704.398 333.423 715.009 364.524 C 723.544 389.537 738.404 429.952 753.065 452.168 C 737.015 458.212 698.796 473.663 684.296 483.381 C 659.557 494.702 631.784 514.739 619.511 539.765 C 613.513 554.643 612.73 564.677 618.707 580.382 C 629.875 609.728 678.56 639.493 706.616 650.68 C 707.163 650.903 707.714 651.118 708.269 651.323 C 719.73 657.486 740.034 665.637 752.761 670.053 C 756.582 671.053 788.634 683.956 791.782 685.956 L 791.97 689.288 C 791.929 693.415 782.373 712.625 780.582 716.67 C 726.727 838.298 776.251 833.625 874.567 792.787 C 879.483 790.745 891.862 785.99 895.169 782.711 z M 822.474 558.677 C 831.887 570.897 842.535 580.86 851.161 591.752 C 840.682 607.203 825.335 628.846 817.121 644.954 C 812.461 644.702 801.399 640.826 797.056 638.852 L 798.701 637.613 C 794.64 635.432 782.537 632.097 777.522 630.592 C 779.155 627.487 781.948 623.208 781.431 619.923 C 782.794 613.081 816.453 566.472 822.474 558.677 z"/>
<path transform="translate(0,0)" fill="rgb(92,174,131)" d="M 822.474 558.677 C 831.887 570.897 842.535 580.86 851.161 591.752 C 840.682 607.203 825.335 628.846 817.121 644.954 C 812.461 644.702 801.399 640.826 797.056 638.852 L 798.701 637.613 C 794.64 635.432 782.537 632.097 777.522 630.592 C 779.155 627.487 781.948 623.208 781.431 619.923 C 782.794 613.081 816.453 566.472 822.474 558.677 z"/>
<path transform="translate(0,0)" fill="url(#Gradient7)" d="M 753.065 452.168 C 738.404 429.952 723.544 389.537 715.009 364.524 C 704.398 333.423 698.422 283.072 731.724 263.305 C 756.247 248.749 787.114 254.885 813.414 261.128 C 822.163 262.451 854.743 272.393 862.183 276.603 C 876.645 281.435 893.017 288.813 907.269 294.858 C 911.63 282.932 917.966 264.675 923.447 253.779 C 924.895 260.932 908.802 288.402 909.672 297.126 C 913.363 297.989 914.511 295.824 917.367 297.055 C 919.771 298.092 922.163 299.256 924.519 300.401 C 929.222 289.835 933.919 274.207 938.827 264.799 L 940.022 264.656 C 937.13 272.178 933.903 280.164 931.376 287.763 L 931.397 288.577 C 931.469 292.796 930.198 297.049 928.272 300.779 L 928.647 301.549 L 928.35 302.122 C 930.148 298.949 931.331 295.071 933.725 294.094 L 937.709 284.252 C 942.445 279.37 942.927 270.716 946.096 268.703 C 951.285 272.827 951.081 281.812 953.546 287.701 C 956.098 293.8 951.003 295.401 952.509 302.053 C 950.847 306.627 949.363 310.755 947.367 315.218 C 942.374 328.786 938.803 343.152 933.876 356.74 C 928.105 373.804 924.89 389.24 919.75 405.49 C 933.585 402.569 945.588 400.886 959.236 398.42 C 949.544 406.974 940.812 416.559 933.195 427.004 C 926.057 436.784 921.007 448.428 909.296 452.114 C 901.356 475.626 890.129 549.419 900.516 572.992 C 901.51 575.249 904.342 578.227 906.156 580.073 C 937.922 607.814 971.047 634.78 1011.47 648.975 C 1014.83 650.156 1019.41 651.247 1022.51 652.615 C 1041.85 653.73 1053.28 653.729 1063.87 636.126 C 1074.66 650.266 1041.06 685.141 1031.39 694.494 C 989.054 698.97 951.422 673.861 918.492 650.69 C 901.091 638.037 888.477 625.314 872.951 613.561 C 868.231 608.869 859.009 600.513 855.555 595.671 L 851.161 591.752 C 842.535 580.86 831.887 570.897 822.474 558.677 C 817.733 551.525 808.988 540.879 803.545 533.488 C 793.422 519.762 783.93 505.58 775.099 490.989 C 767.347 478.502 759.301 465.443 753.065 452.168 z M 796.567 436.746 C 822.69 428.68 844.461 421.94 871.211 415.353 C 873.152 407.298 875.877 393.999 878.624 386.64 C 879.679 378.097 889.953 346.708 893.059 336.794 C 883.514 333.692 862.723 324.214 851.895 319.919 C 831.861 313.277 789.213 296.94 769.605 306.588 C 764.183 309.243 760.087 314.003 758.27 319.759 C 756.987 323.707 756.815 326.441 756.769 330.529 C 760.124 360.312 771.408 384.159 784.205 410.914 C 786.198 415.08 795.402 433.048 796.567 436.746 z M 852.55 523.038 L 853.888 522.405 C 855.424 502.002 858.057 481.697 861.777 461.577 C 850.422 464.925 829.506 470.428 819.162 474.474 C 824.702 482.818 849.675 516.957 852.55 523.038 z"/>
<path transform="translate(0,0)" fill="rgb(52,149,138)" d="M 796.567 436.746 C 822.69 428.68 844.461 421.94 871.211 415.353 C 868.909 426.598 864.59 451.897 861.777 461.577 C 850.422 464.925 829.506 470.428 819.162 474.474 L 796.567 436.746 z"/>
<path transform="translate(0,0)" fill="rgb(43,110,207)" d="M 923.447 253.779 C 924.895 260.932 908.802 288.402 909.672 297.126 C 913.363 297.989 914.511 295.824 917.367 297.055 C 919.771 298.092 922.163 299.256 924.519 300.401 C 929.222 289.835 933.919 274.207 938.827 264.799 L 940.022 264.656 C 937.13 272.178 933.903 280.164 931.376 287.763 L 931.397 288.577 C 931.469 292.796 930.198 297.049 928.272 300.779 L 928.647 301.549 L 928.35 302.122 C 930.148 298.949 931.331 295.071 933.725 294.094 L 937.709 284.252 C 942.445 279.37 942.927 270.716 946.096 268.703 C 951.285 272.827 951.081 281.812 953.546 287.701 C 956.098 293.8 951.003 295.401 952.509 302.053 C 950.847 306.627 949.363 310.755 947.367 315.218 C 942.374 328.786 938.803 343.152 933.876 356.74 C 928.105 373.804 924.89 389.24 919.75 405.49 C 933.585 402.569 945.588 400.886 959.236 398.42 C 949.544 406.974 940.812 416.559 933.195 427.004 C 926.057 436.784 921.007 448.428 909.296 452.114 C 901.356 475.626 890.129 549.419 900.516 572.992 C 901.51 575.249 904.342 578.227 906.156 580.073 C 905.104 580.363 904.024 580.759 903.083 579.802 C 894.233 570.804 854.103 531.972 852.55 523.038 L 853.888 522.405 C 855.424 502.002 858.057 481.697 861.777 461.577 C 864.59 451.897 868.909 426.598 871.211 415.353 C 873.152 407.298 875.877 393.999 878.624 386.64 C 879.679 378.097 889.953 346.708 893.059 336.794 C 896.512 323.605 902.524 307.633 907.269 294.858 C 911.63 282.932 917.966 264.675 923.447 253.779 z"/>
<path transform="translate(0,0)" fill="rgb(34,154,213)" d="M 923.447 253.779 C 924.895 260.932 908.802 288.402 909.672 297.126 C 913.363 297.989 914.511 295.824 917.367 297.055 C 919.771 298.092 922.163 299.256 924.519 300.401 C 929.222 289.835 933.919 274.207 938.827 264.799 L 940.022 264.656 C 937.13 272.178 933.903 280.164 931.376 287.763 C 924.722 301.718 915.285 332.854 910.532 348.391 C 904.276 361.416 892.148 424.459 890.405 426.716 C 888.623 419.841 893.99 404.166 894.66 396.621 C 895.137 391.246 888.594 380.938 888.698 378.32 C 889.14 367.171 890.997 363.197 890.365 351.208 C 888.741 356.811 881.715 384.223 878.624 386.64 C 879.679 378.097 889.953 346.708 893.059 336.794 C 896.512 323.605 902.524 307.633 907.269 294.858 C 911.63 282.932 917.966 264.675 923.447 253.779 z"/>
<path transform="translate(0,0)" fill="rgb(92,174,131)" d="M 919.75 405.49 C 933.585 402.569 945.588 400.886 959.236 398.42 C 949.544 406.974 940.812 416.559 933.195 427.004 C 926.057 436.784 921.007 448.428 909.296 452.114 C 911.485 438.116 916.218 419.34 919.75 405.49 z"/>
<path transform="translate(0,0)" fill="rgb(34,181,236)" d="M 910.532 348.391 L 913.174 346.683 C 914.305 350.032 911.359 352.142 912.569 356.338 C 911.836 361.181 910.003 366.887 908.496 371.577 C 901.056 394.732 896.08 418.593 889.013 441.804 C 888.24 444.344 887.77 446.449 887.421 449.081 C 887.798 440.254 888.718 435.455 890.405 426.716 C 892.148 424.459 904.276 361.416 910.532 348.391 z"/>
<path transform="translate(0,0)" fill="rgb(154,206,251)" d="M 931.376 287.763 L 931.397 288.577 C 931.469 292.796 930.198 297.049 928.272 300.779 L 928.647 301.549 L 928.35 302.122 C 930.148 298.949 931.331 295.071 933.725 294.094 C 929.787 310.002 917.924 338.124 912.569 356.338 C 911.359 352.142 914.305 350.032 913.174 346.683 L 910.532 348.391 C 915.285 332.854 924.722 301.718 931.376 287.763 z"/>
<path transform="translate(0,0)" fill="rgb(76,58,170)" d="M 813.414 261.128 C 822.163 262.451 854.743 272.393 862.183 276.603 C 876.645 281.435 893.017 288.813 907.269 294.858 C 902.524 307.633 896.512 323.605 893.059 336.794 C 883.514 333.692 862.723 324.214 851.895 319.919 C 831.861 313.277 789.213 296.94 769.605 306.588 C 764.183 309.243 760.087 314.003 758.27 319.759 C 756.987 323.707 756.815 326.441 756.769 330.529 C 747.88 307.512 757.962 268.959 784.498 263.756 C 794.907 261.714 804.39 263.198 813.414 261.128 z"/>
<path transform="translate(0,0)" fill="rgb(129,80,175)" d="M 862.183 276.603 C 876.645 281.435 893.017 288.813 907.269 294.858 C 902.524 307.633 896.512 323.605 893.059 336.794 C 883.514 333.692 862.723 324.214 851.895 319.919 C 854.909 318.743 853.568 318.86 857.207 320.008 C 866.169 316.215 862.877 296.262 879.255 287.513 C 877.05 280.603 865.648 283.295 862.183 276.603 z"/>
<path transform="translate(0,0)" fill="rgb(76,58,170)" d="M 855.555 595.671 L 857 595.313 C 886.587 621.84 933.497 670.302 975.68 675.339 C 979.398 675.783 991.324 672.158 994.102 672.83 C 1005.75 675.645 1044 671.786 1046.36 656.921 L 1045.6 655.537 C 1038.25 653.641 1032.24 656.397 1022.05 653.842 L 1022.51 652.615 C 1041.85 653.73 1053.28 653.729 1063.87 636.126 C 1074.66 650.266 1041.06 685.141 1031.39 694.494 C 989.054 698.97 951.422 673.861 918.492 650.69 C 901.091 638.037 888.477 625.314 872.951 613.561 C 868.231 608.869 859.009 600.513 855.555 595.671 z"/>
<path transform="translate(0,0)" fill="rgb(57,204,250)" d="M 728.67 332.319 C 728.062 331.615 730.774 336.984 730.709 336.828 C 743.362 367.416 753.679 400.411 770.567 429.184 C 798.712 477.135 827.525 525.937 865.682 566.731 C 871.157 572.584 879.462 580.883 883.51 587.5 C 875.187 582.55 854.996 555.902 850.157 553.477 L 849.546 556.235 C 843.78 552.216 830.906 534.115 826.387 528.132 C 788.508 478.764 758.547 423.8 737.579 365.214 C 735.028 357.969 728.913 339.836 728.67 332.319 z"/>
<path transform="translate(0,0)" fill="url(#Gradient6)" d="M 684.296 483.381 C 698.796 473.663 737.015 458.212 753.065 452.168 C 759.301 465.443 767.347 478.502 775.099 490.989 C 756.206 498.301 736.667 505.853 718.9 515.653 C 699.428 526.392 659.299 545.819 674.745 573.771 C 695.193 597.876 744.493 621.286 774.91 630.234 C 776.745 627.048 779.106 622.576 781.431 619.923 C 781.948 623.208 779.155 627.487 777.522 630.592 C 782.537 632.097 794.64 635.432 798.701 637.613 L 797.056 638.852 C 801.399 640.826 812.461 644.702 817.121 644.954 C 825.532 647.645 859.003 658.858 866.613 658.831 C 864.127 647.928 861.806 630.115 860.345 618.939 L 861.356 618.533 C 871.833 628.451 886.315 642.398 897.776 650.998 C 901.485 655.058 912.429 662.773 917.381 666.475 C 922.018 669.56 955.922 690.127 957.071 691.367 C 977.919 700.448 992.944 708.404 1016.33 708.021 C 978.86 741.254 955.93 754.632 911.975 777.124 L 910.614 776.41 C 906.648 778.21 899.129 781.936 895.169 782.711 C 888.274 764.53 879.785 727.399 875.566 708.34 C 872.92 707.269 795.176 686.095 795.091 686.096 L 791.97 689.288 L 791.782 685.956 C 788.634 683.956 756.582 671.053 752.761 670.053 C 740.034 665.637 719.73 657.486 708.269 651.323 C 707.714 651.118 707.163 650.903 706.616 650.68 C 678.56 639.493 629.875 609.728 618.707 580.382 C 612.73 564.677 613.513 554.643 619.511 539.765 C 631.784 514.739 659.557 494.702 684.296 483.381 z M 929.33 742.434 C 931.379 748.965 933.529 755.465 935.779 761.931 C 939.247 761.004 954.259 751.692 958.245 749.295 C 967.681 743.538 979.981 735.384 988.604 728.641 C 965.663 725.828 945.031 722.225 922.386 718.055 C 924.652 726.195 926.967 734.321 929.33 742.434 z"/>
<path transform="translate(0,0)" fill="url(#Gradient5)" d="M 684.296 483.381 C 698.796 473.663 737.015 458.212 753.065 452.168 C 759.301 465.443 767.347 478.502 775.099 490.989 C 756.206 498.301 736.667 505.853 718.9 515.653 C 699.428 526.392 659.299 545.819 674.745 573.771 C 695.193 597.876 744.493 621.286 774.91 630.234 C 776.745 627.048 779.106 622.576 781.431 619.923 C 781.948 623.208 779.155 627.487 777.522 630.592 C 782.537 632.097 794.64 635.432 798.701 637.613 L 797.056 638.852 C 784.726 634.129 771.543 631.378 759.121 626.537 C 752.934 624.126 716.98 607.119 714.228 607.292 C 712.732 610.547 715.952 613.858 718.047 616.525 C 722.28 621.912 721.625 621.469 722.019 628.206 C 725.876 634.181 749.759 639.882 756.722 643.4 C 761.66 645.894 762.97 646.875 768.372 648.676 L 767.893 649.276 C 751.619 644.98 690.424 617.599 676.441 608.761 L 675.253 610.697 C 677.5 612.059 689.526 619.181 690.762 620.369 C 697.063 627.872 694.435 630.959 695.751 639.754 C 696.258 643.146 706.09 647.107 708.269 651.323 C 707.714 651.118 707.163 650.903 706.616 650.68 C 678.56 639.493 629.875 609.728 618.707 580.382 C 612.73 564.677 613.513 554.643 619.511 539.765 C 631.784 514.739 659.557 494.702 684.296 483.381 z"/>
<path transform="translate(0,0)" fill="url(#Gradient4)" d="M 684.296 483.381 C 698.796 473.663 737.015 458.212 753.065 452.168 C 759.301 465.443 767.347 478.502 775.099 490.989 C 756.206 498.301 736.667 505.853 718.9 515.653 C 699.428 526.392 659.299 545.819 674.745 573.771 C 673.475 574.286 673.838 574.075 672.248 573.858 C 663.051 567.488 656.912 554.506 654.843 543.449 C 651.473 526.874 658.384 509.476 669.895 497.571 C 674.626 492.677 680.431 489.405 684.296 483.381 z"/>
<path transform="translate(0,0)" fill="rgb(22,115,160)" d="M 708.269 651.323 C 707.714 651.118 707.163 650.903 706.616 650.68 C 678.56 639.493 629.875 609.728 618.707 580.382 C 612.73 564.677 613.513 554.643 619.511 539.765 C 627.954 546.438 628.48 575.564 644.39 586.376 C 651.654 594.022 665.718 606.195 675.253 610.697 C 677.5 612.059 689.526 619.181 690.762 620.369 C 697.063 627.872 694.435 630.959 695.751 639.754 C 696.258 643.146 706.09 647.107 708.269 651.323 z"/>
<path transform="translate(0,0)" fill="rgb(52,149,138)" d="M 644.39 586.376 L 646.239 585.942 C 648.908 587.871 676.532 608.934 676.441 608.761 L 675.253 610.697 C 665.718 606.195 651.654 594.022 644.39 586.376 z"/>
<path transform="translate(0,0)" fill="rgb(92,174,131)" d="M 676.441 608.761 C 690.424 617.599 751.619 644.98 767.893 649.276 L 768.372 648.676 C 762.97 646.875 761.66 645.894 756.722 643.4 C 749.759 639.882 725.876 634.181 722.019 628.206 C 721.625 621.469 722.28 621.912 718.047 616.525 C 715.952 613.858 712.732 610.547 714.228 607.292 C 716.98 607.119 752.934 624.126 759.121 626.537 C 771.543 631.378 784.726 634.129 797.056 638.852 C 801.399 640.826 812.461 644.702 817.121 644.954 C 825.532 647.645 859.003 658.858 866.613 658.831 C 864.127 647.928 861.806 630.115 860.345 618.939 L 861.356 618.533 C 871.833 628.451 886.315 642.398 897.776 650.998 C 901.485 655.058 912.429 662.773 917.381 666.475 C 922.018 669.56 955.922 690.127 957.071 691.367 C 961.355 696.5 966.172 697.357 972.613 700.161 C 967.308 702.98 945.926 699.948 938.825 698.802 C 855.837 685.412 765.162 659.966 690.762 620.369 C 689.526 619.181 677.5 612.059 675.253 610.697 L 676.441 608.761 z"/>
<path transform="translate(0,0)" fill="rgb(34,154,213)" d="M 866.613 658.831 C 864.127 647.928 861.806 630.115 860.345 618.939 L 861.356 618.533 C 871.833 628.451 886.315 642.398 897.776 650.998 C 901.485 655.058 912.429 662.773 917.381 666.475 C 916.805 667.241 915.757 668.946 915.107 669.068 C 908.465 670.322 871.732 661.415 866.613 658.831 z"/>
<path transform="translate(0,0)" fill="rgb(34,154,213)" d="M 875.566 708.34 C 889.838 710.567 907.609 715.122 922.386 718.055 C 924.652 726.195 926.967 734.321 929.33 742.434 C 931.379 748.965 933.529 755.465 935.779 761.931 C 930.358 766.39 917.789 771.268 910.614 776.41 C 906.648 778.21 899.129 781.936 895.169 782.711 C 888.274 764.53 879.785 727.399 875.566 708.34 z"/>
<path transform="translate(0,0)" fill="rgb(24,209,218)" d="M 1002.43 521.402 L 1004.36 519.876 C 1007.79 520.928 1008.56 521.133 1012.12 521.331 L 1012.92 521.369 C 1052.15 534.543 1096.98 540.991 1117.56 582.437 C 1121.63 590.7 1124.18 599.629 1125.07 608.796 C 1124.74 616.486 1124.91 645.458 1118.6 652.827 C 1117.25 654.401 1099.82 653.667 1099.15 649.373 C 1097.91 640.665 1105.07 626.387 1099.01 618.033 C 1098.02 612.957 1096.31 607.666 1094.82 602.681 C 1091.36 599.731 1090.39 596.706 1087.5 593.655 C 1088.55 596.798 1089.65 599.426 1089.34 602.796 C 1088.39 600.967 1087.42 599.153 1086.41 597.355 C 1076.5 579.712 1058.04 568.808 1039.03 563.454 C 1036.46 562.051 1029 559.995 1025.92 558.959 C 1013.62 554.822 1001.34 551.774 989.946 545.374 C 987.893 539.489 968.252 534.365 968.834 524.712 C 980.196 533.983 993.821 543.339 1008.21 547.064 L 1008.25 546.912 C 1007.2 544.988 987.341 536.426 984.193 534.966 C 990.088 531.689 998.207 526.678 1002.43 521.402 z"/>
<path transform="translate(0,0)" fill="rgb(65,222,245)" d="M 968.834 524.712 C 980.196 533.983 993.821 543.339 1008.21 547.064 L 1009.21 547.48 C 1040.87 560.466 1076.92 561.502 1093.51 598.942 C 1094.04 600.153 1094.48 601.403 1094.82 602.681 C 1091.36 599.731 1090.39 596.706 1087.5 593.655 C 1088.55 596.798 1089.65 599.426 1089.34 602.796 C 1088.39 600.967 1087.42 599.153 1086.41 597.355 C 1076.5 579.712 1058.04 568.808 1039.03 563.454 C 1036.46 562.051 1029 559.995 1025.92 558.959 C 1013.62 554.822 1001.34 551.774 989.946 545.374 C 987.893 539.489 968.252 534.365 968.834 524.712 z"/>
<path transform="translate(0,0)" fill="rgb(117,222,185)" d="M 1089.34 602.796 C 1089.65 599.426 1088.55 596.798 1087.5 593.655 C 1090.39 596.706 1091.36 599.731 1094.82 602.681 C 1096.31 607.666 1098.02 612.957 1099.01 618.033 C 1099.73 653.941 1090.13 670.263 1065.98 697.416 C 1057.42 707.038 1044.38 716.684 1036.95 724.818 C 995.096 756.019 950.026 787.968 901.19 807.462 L 896.426 808.417 L 895.745 807.751 L 898.233 804.095 C 898.624 804.035 899.015 803.975 899.406 803.915 C 962.483 772.014 1040.36 729.198 1080.68 670.135 C 1096.44 647.066 1094.88 621.645 1089.34 602.796 z"/>
<path transform="translate(0,0)" fill="rgb(92,174,131)" d="M 1125.07 608.796 C 1130.02 632.753 1120.91 661.718 1107.47 681.48 C 1102.93 688.154 1088.31 707.276 1081.84 711.296 L 1080.8 709.805 C 1091.82 698.441 1108.62 680.545 1113.75 665.122 L 1113.07 664.183 C 1102.98 666.406 1100.75 667.068 1090.5 667.819 C 1086.97 679.738 1048.17 722.349 1036.95 724.818 C 1044.38 716.684 1057.42 707.038 1065.98 697.416 C 1090.13 670.263 1099.73 653.941 1099.01 618.033 C 1105.07 626.387 1097.91 640.665 1099.15 649.373 C 1099.82 653.667 1117.25 654.401 1118.6 652.827 C 1124.91 645.458 1124.74 616.486 1125.07 608.796 z"/>
<path transform="translate(0,0)" fill="rgb(52,149,138)" d="M 901.19 807.462 C 900.525 807.98 899.033 809.138 898.258 809.494 C 867.749 823.534 836.189 836.166 803.113 842.558 C 798.185 843.511 789.324 846.433 784.862 845.295 C 788.701 843.55 793.925 844.03 798.091 842.852 C 831.819 833.322 866.256 818.152 898.233 804.095 L 895.745 807.751 L 896.426 808.417 L 901.19 807.462 z"/>
<path transform="translate(0,0)" fill="url(#Gradient3)" d="M 1019.3 424.144 C 1068.96 420.886 1124.27 460.463 1160.24 492.069 C 1161.93 493.558 1163.61 495.063 1165.28 496.585 C 1175.94 506.491 1188.56 521.01 1197.5 528.915 C 1203.08 534.63 1222.94 556.57 1226.62 563.192 C 1229.08 566.191 1232.29 569.868 1234.56 572.904 C 1250.26 590.926 1261.17 614.437 1273.93 631.96 C 1281.69 642.667 1289.95 658.837 1296.22 670.746 C 1318.37 711.536 1351.08 785.159 1337.82 831.153 C 1334.97 841.063 1328.77 851.917 1319.63 857.378 C 1299.9 872.885 1262.79 870.091 1240.03 863.353 C 1205.42 856.993 1172.06 840.642 1139.76 828.075 L 1139.1 828.099 C 1135.63 839.955 1128.65 855.915 1123.52 867.269 C 1106.53 904.937 1085.82 954.829 1048.75 976.239 C 1006.26 1000.77 970.864 956.453 952.263 923.87 C 937.227 901.023 919.144 854.661 910.225 828.8 C 917.132 824.014 937.201 813.582 945.324 809.979 C 947.926 811.426 949.02 811.483 951.984 811.522 C 963.379 840.787 975.221 870.728 992.137 897.332 C 1003.06 914.509 1017.98 931.809 1038.9 918.252 C 1039.4 917.389 1043.97 912.915 1045.13 911.51 C 1049.76 905.886 1055.84 899.094 1059.53 892.814 C 1075.42 865.773 1086.75 836.228 1098.91 807.478 C 1103.39 796.913 1106.34 784.369 1111.62 772.084 L 1113.43 765.966 C 1117.05 754.345 1125.48 728.784 1127.02 717.345 C 1114.75 719.992 1101.05 721.827 1088.59 723.395 C 1101.71 712.322 1114.47 694.124 1124.52 680.191 C 1129.31 673.546 1130.86 672.475 1138.62 671.405 C 1147.61 635.981 1158.31 583.502 1150.19 548.137 C 1131.56 519.141 1004.66 422.765 983.562 485.363 C 979.133 462.923 1004.18 437.634 1019.3 424.144 z M 1274.62 818.279 C 1288.39 811.398 1290.1 803.15 1290.18 788.838 C 1288.81 759.977 1265.1 712.813 1252.44 686.441 C 1229.66 694.015 1201.21 701.729 1177.87 707.645 C 1176 709.603 1157.15 777.095 1154.35 786.116 C 1186.92 799.115 1224.24 814.771 1259.42 818.67 C 1264.16 819.196 1269.71 818.397 1274.62 818.279 z M 1186.25 661.479 C 1200.85 657.265 1215.58 652.663 1230.14 648.244 C 1217.08 630.722 1210.38 615.781 1194.04 597.456 C 1194.46 609.119 1190.06 650.133 1186.25 661.479 z"/>
<path transform="translate(0,0)" fill="rgb(247,113,101)" d="M 1186.25 661.479 C 1200.85 657.265 1215.58 652.663 1230.14 648.244 C 1239.02 662.249 1245.57 671.16 1252.44 686.441 C 1229.66 694.015 1201.21 701.729 1177.87 707.645 C 1177.05 704.794 1185.07 667.729 1186.25 661.479 z"/>
<path transform="translate(0,0)" fill="rgb(22,115,160)" d="M 1150.19 548.137 C 1162.14 557.838 1186.12 584.268 1194.04 597.456 C 1194.46 609.119 1190.06 650.133 1186.25 661.479 C 1185.07 667.729 1177.05 704.794 1177.87 707.645 C 1176 709.603 1157.15 777.095 1154.35 786.116 C 1149.85 800.225 1144.98 814.216 1139.76 828.075 L 1139.1 828.099 C 1135.63 839.955 1128.65 855.915 1123.52 867.269 C 1106.53 904.937 1085.82 954.829 1048.75 976.239 C 1006.26 1000.77 970.864 956.453 952.263 923.87 C 937.227 901.023 919.144 854.661 910.225 828.8 C 917.132 824.014 937.201 813.582 945.324 809.979 C 947.926 811.426 949.02 811.483 951.984 811.522 C 963.379 840.787 975.221 870.728 992.137 897.332 C 1003.06 914.509 1017.98 931.809 1038.9 918.252 C 1039.4 917.389 1043.97 912.915 1045.13 911.51 C 1049.76 905.886 1055.84 899.094 1059.53 892.814 C 1075.42 865.773 1086.75 836.228 1098.91 807.478 C 1103.39 796.913 1106.34 784.369 1111.62 772.084 L 1113.43 765.966 C 1117.05 754.345 1125.48 728.784 1127.02 717.345 C 1114.75 719.992 1101.05 721.827 1088.59 723.395 C 1101.71 712.322 1114.47 694.124 1124.52 680.191 C 1129.31 673.546 1130.86 672.475 1138.62 671.405 C 1147.61 635.981 1158.31 583.502 1150.19 548.137 z"/>
<path transform="translate(0,0)" fill="rgb(92,174,131)" d="M 1150.19 548.137 C 1162.14 557.838 1186.12 584.268 1194.04 597.456 C 1194.46 609.119 1190.06 650.133 1186.25 661.479 C 1185.07 667.729 1177.05 704.794 1177.87 707.645 C 1176 709.603 1157.15 777.095 1154.35 786.116 C 1149.85 800.225 1144.98 814.216 1139.76 828.075 L 1139.1 828.099 C 1132.16 832.497 1127.8 861.28 1121.89 860.688 C 1118.58 856.803 1115.01 852.326 1111.2 849.012 C 1113.28 843.988 1117.13 835.989 1117.34 830.87 C 1113.37 839.76 1095.74 886.322 1089.21 888.574 C 1089.67 883.797 1102.94 854.732 1105.72 847.421 C 1114.83 823.399 1124.45 799.836 1131.34 774.93 C 1128.29 777.674 1116.58 814.897 1114.94 821.313 C 1114.16 824.323 1108.73 821.677 1104.91 823.422 C 1097.75 826.699 1100.83 829.801 1092.92 832.442 C 1089.29 828.603 1113.54 782.771 1111.62 772.084 L 1113.43 765.966 C 1117.05 754.345 1125.48 728.784 1127.02 717.345 C 1114.75 719.992 1101.05 721.827 1088.59 723.395 C 1101.71 712.322 1114.47 694.124 1124.52 680.191 C 1129.31 673.546 1130.86 672.475 1138.62 671.405 C 1147.61 635.981 1158.31 583.502 1150.19 548.137 z"/>
<path transform="translate(0,0)" fill="rgb(247,113,101)" d="M 1088.59 723.395 C 1101.71 712.322 1114.47 694.124 1124.52 680.191 C 1129.31 673.546 1130.86 672.475 1138.62 671.405 C 1136.73 679.738 1130.17 711.68 1127.02 717.345 C 1114.75 719.992 1101.05 721.827 1088.59 723.395 z"/>
<path transform="translate(0,0)" fill="rgb(117,222,185)" d="M 1131.34 774.93 C 1135.94 766.508 1141.26 746.307 1143.62 736.599 C 1147.82 719.325 1154.16 703.472 1157.89 686.228 C 1159.33 704.902 1134.92 781.418 1127.42 802.617 C 1126.03 806.549 1117.44 829.927 1117.34 830.87 C 1113.37 839.76 1095.74 886.322 1089.21 888.574 C 1089.67 883.797 1102.94 854.732 1105.72 847.421 C 1114.83 823.399 1124.45 799.836 1131.34 774.93 z"/>
<path transform="translate(0,0)" fill="rgb(19,79,154)" d="M 910.225 828.8 C 917.132 824.014 937.201 813.582 945.324 809.979 C 947.926 811.426 949.02 811.483 951.984 811.522 C 963.379 840.787 975.221 870.728 992.137 897.332 C 1003.06 914.509 1017.98 931.809 1038.9 918.252 C 1038.5 923.39 1034.41 927.573 1030.65 930.41 C 1002.87 951.372 979.921 946.098 956.218 923.695 C 955.211 922.743 953.339 923.428 952.263 923.87 C 937.227 901.023 919.144 854.661 910.225 828.8 z"/>
<path transform="translate(0,0)" fill="rgb(129,80,175)" d="M 1154.35 786.116 C 1186.92 799.115 1224.24 814.771 1259.42 818.67 C 1264.16 819.196 1269.71 818.397 1274.62 818.279 C 1282.06 818.841 1281.21 814.405 1287.78 814.757 C 1295.05 819.625 1285.05 831.014 1286.22 837.905 C 1281.09 860.301 1250.36 856.516 1240.03 863.353 C 1205.42 856.993 1172.06 840.642 1139.76 828.075 C 1144.98 814.216 1149.85 800.225 1154.35 786.116 z"/>
<path transform="translate(0,0)" fill="url(#Gradient2)" d="M 1165.28 496.585 C 1175.94 506.491 1188.56 521.01 1197.5 528.915 C 1203.08 534.63 1222.94 556.57 1226.62 563.192 C 1229.08 566.191 1232.29 569.868 1234.56 572.904 L 1232.51 573.283 C 1230.28 570.935 1229.43 569.961 1227.52 567.229 C 1224.62 575.097 1223.62 579.442 1221.85 587.684 C 1236.22 608.792 1249.77 630.443 1262.48 652.59 L 1258.82 655.199 C 1222.49 595.778 1195.41 560.017 1145.34 511.904 L 1145.4 510.694 C 1147.47 509.9 1150 510.816 1152.28 511.327 C 1159.31 505.935 1163.63 504.466 1165.28 496.585 z"/>
<path transform="translate(0,0)" fill="rgb(191,59,126)" d="M 1286.22 837.905 L 1289.43 832.847 C 1290.33 844.81 1276.71 847.127 1278.75 856.248 C 1291.19 856.507 1295.11 858.802 1306.85 861.72 C 1309.25 862.314 1315.03 857.195 1319.63 857.378 C 1299.9 872.885 1262.79 870.091 1240.03 863.353 C 1250.36 856.516 1281.09 860.301 1286.22 837.905 z"/>
<path transform="translate(0,0)" fill="rgb(251,167,138)" d="M 1262.48 652.59 C 1278.98 680.301 1292.67 708.578 1304.84 738.45 C 1308.21 746.74 1308.36 756.598 1313.19 764.646 C 1313.46 765.111 1315.67 775.873 1315.55 776.957 C 1308.22 749.594 1290.89 715.265 1277.72 689.824 C 1275.52 685.581 1259.41 657.223 1258.82 655.199 L 1262.48 652.59 z"/>
<path transform="translate(0,0)" fill="rgb(93,39,126)" d="M 1290.18 788.838 C 1294.15 813.043 1292.91 811.028 1289.43 832.847 L 1286.22 837.905 C 1285.05 831.014 1295.05 819.625 1287.78 814.757 C 1281.21 814.405 1282.06 818.841 1274.62 818.279 C 1288.39 811.398 1290.1 803.15 1290.18 788.838 z"/>
<path transform="translate(0,0)" fill="rgb(247,113,101)" d="M 1059.09 394.572 C 1082.04 397.689 1105.44 402.213 1128.39 405.901 C 1136.26 407.739 1169.63 415.44 1176.61 415.527 C 1181.33 417.757 1188.57 419.224 1193.75 420.585 C 1213.47 425.777 1233.02 431.577 1252.59 437.336 L 1253.85 437.179 C 1263.68 440.447 1287.3 448.168 1296.02 452.57 C 1323.96 462.656 1397.87 495.06 1413.22 517.931 C 1439.41 541.274 1440 576.568 1416.44 601.657 C 1406.58 612.151 1392.58 623.81 1380.02 630.714 C 1349.86 650.016 1327.26 657.098 1296.22 670.746 C 1289.95 658.837 1281.69 642.667 1273.93 631.96 C 1289.86 625.047 1307.12 619.79 1322.29 611.186 C 1345.2 598.194 1393.94 578.44 1372.02 545.212 C 1368.32 542.052 1358.45 533.159 1354.99 530.934 C 1329.35 514.464 1301.62 502.908 1273.79 491.366 C 1268.27 490.209 1262.35 488.461 1257.37 485.831 C 1249.01 483.182 1240.68 480.478 1232.36 477.72 C 1216.66 473.19 1200.1 468.139 1184.31 464.27 C 1186.18 476.812 1187.4 489.442 1187.96 502.11 C 1171.09 484.707 1153 468.531 1133.82 453.708 C 1101.32 430.527 1077.26 418.005 1038.7 409.166 L 1038.86 407.813 C 1044.34 405.454 1052.64 396.64 1059.09 394.572 z"/>
<path transform="translate(0,0)" fill="rgb(249,184,97)" d="M 1059.09 394.572 C 1082.04 397.689 1105.44 402.213 1128.39 405.901 C 1136.26 407.739 1169.63 415.44 1176.61 415.527 C 1181.33 417.757 1188.57 419.224 1193.75 420.585 C 1213.47 425.777 1233.02 431.577 1252.59 437.336 L 1253.85 437.179 C 1263.68 440.447 1287.3 448.168 1296.02 452.57 C 1323.96 462.656 1397.87 495.06 1413.22 517.931 C 1415.4 524.557 1423.46 532.523 1426.89 539.147 C 1432.84 550.649 1433.39 568.755 1428.14 580.482 C 1427.77 581.313 1427.38 582.133 1426.96 582.943 L 1425.83 582.825 C 1423.16 566.931 1420.88 547.295 1405.13 537.854 C 1402.01 530.973 1395.55 526.404 1389.66 521.841 L 1385.94 522.828 C 1339.54 490.628 1269.73 467.718 1215.31 453.177 C 1208.87 451.456 1197.89 446.783 1192.09 446.746 C 1188.08 448.573 1184.16 458.513 1182.29 462.718 C 1169.28 461.259 1147.53 452.11 1133.82 453.708 C 1101.32 430.527 1077.26 418.005 1038.7 409.166 L 1038.86 407.813 C 1044.34 405.454 1052.64 396.64 1059.09 394.572 z"/>
<path transform="translate(0,0)" fill="rgb(249,159,103)" d="M 1389.66 521.841 C 1348.71 496.018 1316.14 479.157 1270.45 461.991 C 1263.78 459.484 1231.65 450.929 1229.62 448.005 C 1233.07 444.569 1232.31 440.333 1232.28 435.736 C 1236.47 430.493 1245.03 440.213 1253.89 438.608 L 1252.59 437.336 L 1253.85 437.179 C 1263.68 440.447 1287.3 448.168 1296.02 452.57 C 1323.96 462.656 1397.87 495.06 1413.22 517.931 C 1415.4 524.557 1423.46 532.523 1426.89 539.147 C 1432.84 550.649 1433.39 568.755 1428.14 580.482 C 1427.77 581.313 1427.38 582.133 1426.96 582.943 L 1425.83 582.825 C 1423.16 566.931 1420.88 547.295 1405.13 537.854 C 1402.01 530.973 1395.55 526.404 1389.66 521.841 z"/>
<path transform="translate(0,0)" fill="rgb(191,59,126)" d="M 1372.02 545.212 C 1395.19 558.184 1401.41 593.435 1387.46 614.228 C 1384.71 618.329 1376.73 627.279 1376.36 630.41 L 1380.02 630.714 C 1349.86 650.016 1327.26 657.098 1296.22 670.746 C 1289.95 658.837 1281.69 642.667 1273.93 631.96 C 1289.86 625.047 1307.12 619.79 1322.29 611.186 C 1345.2 598.194 1393.94 578.44 1372.02 545.212 z"/>
<path transform="translate(0,0)" fill="rgb(249,159,103)" d="M 1133.82 453.708 C 1147.53 452.11 1169.28 461.259 1182.29 462.718 C 1192.52 461.751 1244.67 480.632 1256.99 484.563 L 1257.37 485.831 C 1249.01 483.182 1240.68 480.478 1232.36 477.72 C 1216.66 473.19 1200.1 468.139 1184.31 464.27 C 1186.18 476.812 1187.4 489.442 1187.96 502.11 C 1171.09 484.707 1153 468.531 1133.82 453.708 z"/>
<path transform="translate(0,0)" fill="rgb(251,167,138)" d="M 1389.66 521.841 C 1395.55 526.404 1402.01 530.973 1405.13 537.854 C 1400.94 535.456 1390.2 526.303 1385.94 522.828 L 1389.66 521.841 z"/>
<path transform="translate(0,0)" fill="rgb(129,80,175)" d="M 1141.4 295.214 C 1187.74 275.708 1305.32 221.286 1335.79 284.781 C 1345.93 306.218 1342.31 335.02 1335.74 357.053 C 1330.75 349.573 1332.34 333.482 1326.59 322.937 C 1319.02 309.042 1288.49 297.323 1274.95 304.847 C 1243.87 300.103 1183.87 324.241 1155.06 338.803 C 1141.93 345.903 1128.44 352.305 1115.27 359.377 C 1105.29 364.783 1065.87 386.675 1059.32 393.684 L 1059.09 394.572 C 1052.64 396.64 1044.34 405.454 1038.86 407.813 L 1038.7 409.166 C 1032.74 411.855 1024.3 419.624 1019.3 424.144 C 1004.18 437.634 979.133 462.923 983.562 485.363 C 984.815 507.454 995.314 511.698 1012.92 521.369 L 1012.12 521.331 C 1008.56 521.133 1007.79 520.928 1004.36 519.876 L 1002.43 521.402 C 998.207 526.678 990.088 531.689 984.193 534.966 C 987.341 536.426 1007.2 544.988 1008.25 546.912 L 1008.21 547.064 C 993.821 543.339 980.196 533.983 968.834 524.712 C 968.252 534.365 987.893 539.489 989.946 545.374 C 972.742 540.955 958.193 519.13 952.351 503.25 L 951.461 504.223 C 952.134 506.498 952.475 507.625 952.818 509.962 L 951.541 510.693 C 932.676 508.768 924.967 503.624 923.91 483.899 C 923.913 483.054 923.951 482.21 924.027 481.369 C 927.058 443.992 962.234 411.022 988.593 388.35 C 1000.6 378.617 1012.64 369.187 1025.56 360.689 L 1030.97 357.444 C 1040.2 348.711 1088.11 322.359 1100.8 315.376 C 1110.25 311.121 1121.23 305.931 1130.25 300.937 C 1134.44 298.339 1136.86 297.218 1141.4 295.214 z"/>
<path transform="translate(0,0)" fill="rgb(43,110,207)" d="M 1046.67 349.287 C 1051.99 351.274 1059.25 353.15 1059.22 359.841 C 1057.36 361.646 1056.7 362.131 1054.52 363.545 L 1055.31 365.014 L 1043.77 372.716 L 1042.65 375.836 C 1044.54 376.846 1045.23 376.097 1047.84 375.358 C 1050.81 373.897 1057.8 369.241 1060.91 367.291 C 1058.06 374.105 1040.05 381.238 1038.6 384.247 C 1029.98 402.11 1016.83 417.212 1006.83 433.638 C 1017.04 423.458 1025.36 415.347 1037.21 407.073 L 1038.48 407.231 L 1038.86 407.813 L 1038.7 409.166 C 1032.74 411.855 1024.3 419.624 1019.3 424.144 C 1004.18 437.634 979.133 462.923 983.562 485.363 C 984.815 507.454 995.314 511.698 1012.92 521.369 L 1012.12 521.331 C 1008.56 521.133 1007.79 520.928 1004.36 519.876 L 1002.43 521.402 C 998.207 526.678 990.088 531.689 984.193 534.966 C 987.341 536.426 1007.2 544.988 1008.25 546.912 L 1008.21 547.064 C 993.821 543.339 980.196 533.983 968.834 524.712 C 968.252 534.365 987.893 539.489 989.946 545.374 C 972.742 540.955 958.193 519.13 952.351 503.25 L 951.461 504.223 C 952.134 506.498 952.475 507.625 952.818 509.962 L 951.541 510.693 C 932.676 508.768 924.967 503.624 923.91 483.899 C 923.913 483.054 923.951 482.21 924.027 481.369 C 927.058 443.992 962.234 411.022 988.593 388.35 C 1000.6 378.617 1012.64 369.187 1025.56 360.689 L 1030.97 357.444 C 1036.43 356.789 1041.93 352.419 1046.67 349.287 z"/>
<path transform="translate(0,0)" fill="rgb(34,181,236)" d="M 1046.67 349.287 C 1051.99 351.274 1059.25 353.15 1059.22 359.841 C 1057.36 361.646 1056.7 362.131 1054.52 363.545 C 1021.64 383.009 984.944 412.876 963.31 445.116 C 960.3 449.602 954.176 468.423 952.313 474.121 C 950.327 480.192 952.365 496.296 952.351 503.25 L 951.461 504.223 C 952.134 506.498 952.475 507.625 952.818 509.962 L 951.541 510.693 C 932.676 508.768 924.967 503.624 923.91 483.899 C 923.913 483.054 923.951 482.21 924.027 481.369 C 927.058 443.992 962.234 411.022 988.593 388.35 C 1000.6 378.617 1012.64 369.187 1025.56 360.689 L 1030.97 357.444 C 1036.43 356.789 1041.93 352.419 1046.67 349.287 z"/>
<path transform="translate(0,0)" fill="rgb(57,204,250)" d="M 952.351 503.25 C 952.365 496.296 950.327 480.192 952.313 474.121 C 954.176 468.423 960.3 449.602 963.31 445.116 C 984.944 412.876 1021.64 383.009 1054.52 363.545 L 1055.31 365.014 L 1043.77 372.716 L 1042.65 375.836 C 1044.54 376.846 1045.23 376.097 1047.84 375.358 L 1026.58 390.519 C 999.183 412.316 961.639 441.682 956.958 479.009 C 956.494 482.714 956.237 494.739 957.638 497.705 C 958.964 512.568 968.799 520.951 968.834 524.712 C 968.252 534.365 987.893 539.489 989.946 545.374 C 972.742 540.955 958.193 519.13 952.351 503.25 z"/>
<path transform="translate(0,0)" fill="rgb(65,222,245)" d="M 1026.58 390.519 L 1024.99 390.115 C 1029.89 386.567 1031.19 385.806 1034.24 380.689 L 1031.71 383.067 C 1034.68 377.126 1038.12 375.935 1043.77 372.716 L 1042.65 375.836 C 1044.54 376.846 1045.23 376.097 1047.84 375.358 L 1026.58 390.519 z"/>
<path transform="translate(0,0)" fill="rgb(34,154,213)" d="M 957.638 497.705 C 963.946 504.677 964.621 524.92 977.91 525.664 C 986.694 526.155 993.104 520.404 1002.43 521.402 C 998.207 526.678 990.088 531.689 984.193 534.966 C 987.341 536.426 1007.2 544.988 1008.25 546.912 L 1008.21 547.064 C 993.821 543.339 980.196 533.983 968.834 524.712 C 968.799 520.951 958.964 512.568 957.638 497.705 z"/>
<path transform="translate(0,0)" fill="rgb(161,105,199)" d="M 1141.4 295.214 C 1187.74 275.708 1305.32 221.286 1335.79 284.781 C 1330.6 284.433 1323.69 280.136 1317.95 278.516 C 1303.38 274.405 1291.11 275.749 1276.49 276.242 L 1279.5 274.624 L 1277.85 274.268 L 1278.09 275.229 C 1268.06 268.944 1189.08 294.961 1174.79 302.517 C 1170.73 304.659 1153.54 312.148 1150.09 312.688 C 1149.49 312.76 1145.79 312.882 1145.79 312.881 C 1140.84 308.042 1135.88 304.427 1130.25 300.937 C 1134.44 298.339 1136.86 297.218 1141.4 295.214 z"/>
<path transform="translate(0,0)" fill="rgb(118,152,217)" d="M 1130.25 300.937 C 1135.88 304.427 1140.84 308.042 1145.79 312.881 C 1145.79 312.882 1149.49 312.76 1150.09 312.688 L 1137.65 319.234 L 1137.62 324.139 C 1120.71 332.673 1075.55 356.04 1060.91 367.291 C 1057.8 369.241 1050.81 373.897 1047.84 375.358 C 1045.23 376.097 1044.54 376.846 1042.65 375.836 L 1043.77 372.716 L 1055.31 365.014 L 1054.52 363.545 C 1056.7 362.131 1057.36 361.646 1059.22 359.841 C 1059.25 353.15 1051.99 351.274 1046.67 349.287 C 1041.93 352.419 1036.43 356.789 1030.97 357.444 C 1040.2 348.711 1088.11 322.359 1100.8 315.376 C 1110.25 311.121 1121.23 305.931 1130.25 300.937 z"/>
<path transform="translate(0,0)" fill="rgb(154,206,251)" d="M 1137.65 319.234 L 1137.62 324.139 C 1120.71 332.673 1075.55 356.04 1060.91 367.291 C 1057.8 369.241 1050.81 373.897 1047.84 375.358 C 1045.23 376.097 1044.54 376.846 1042.65 375.836 L 1043.77 372.716 L 1055.31 365.014 C 1080.15 349.18 1111.03 331.614 1137.65 319.234 z"/>
<path transform="translate(0,0)" fill="rgb(221,152,246)" d="M 1150.09 312.688 C 1153.54 312.148 1170.73 304.659 1174.79 302.517 C 1189.08 294.961 1268.06 268.944 1278.09 275.229 L 1277.85 274.268 L 1279.5 274.624 L 1276.49 276.242 C 1246.17 276.672 1166.64 309.316 1137.62 324.139 L 1137.65 319.234 L 1150.09 312.688 z"/>
<path transform="translate(0,0)" fill="rgb(161,105,199)" d="M 923.447 253.779 C 923.823 249.667 933.877 229.333 936.053 225.019 C 951.687 193.894 970.443 155.157 1002.85 138.519 C 1042.38 118.22 1080.86 163.128 1095.76 194.748 C 1100.67 201.738 1115.94 231.329 1118.37 239.335 C 1126.52 257.446 1133.59 278.353 1141.4 295.214 C 1136.86 297.218 1134.44 298.339 1130.25 300.937 C 1121.23 305.931 1110.25 311.121 1100.8 315.376 C 1095.05 299.912 1088.02 284.68 1082.53 269.316 C 1079.4 265.222 1076.04 254.883 1072.77 249.044 C 1062.56 230.8 1049.74 197.165 1026.71 192.377 C 1017.89 190.541 1009.29 197.613 1002.99 202.642 C 997.28 210.903 991.562 218.142 986.382 226.908 C 972.336 250.676 963.727 278.213 952.509 302.053 C 951.003 295.401 956.098 293.8 953.546 287.701 C 951.081 281.812 951.285 272.827 946.096 268.703 C 942.927 270.716 942.445 279.37 937.709 284.252 L 933.725 294.094 C 931.331 295.071 930.148 298.949 928.35 302.122 L 928.647 301.549 L 928.272 300.779 C 930.198 297.049 931.469 292.796 931.397 288.577 L 931.376 287.763 C 933.903 280.164 937.13 272.178 940.022 264.656 L 938.827 264.799 C 933.919 274.207 929.222 289.835 924.519 300.401 C 922.163 299.256 919.771 298.092 917.367 297.055 C 914.511 295.824 913.363 297.989 909.672 297.126 C 908.802 288.402 924.895 260.932 923.447 253.779 z"/>
<path transform="translate(0,0)" fill="rgb(129,80,175)" d="M 1002.99 202.642 C 1017.43 174.397 1056.96 159.042 1081.91 182.688 C 1086.02 186.59 1090.93 192.056 1095.76 194.748 C 1100.67 201.738 1115.94 231.329 1118.37 239.335 C 1126.52 257.446 1133.59 278.353 1141.4 295.214 C 1136.86 297.218 1134.44 298.339 1130.25 300.937 C 1121.23 305.931 1110.25 311.121 1100.8 315.376 C 1095.05 299.912 1088.02 284.68 1082.53 269.316 C 1079.4 265.222 1076.04 254.883 1072.77 249.044 C 1062.56 230.8 1049.74 197.165 1026.71 192.377 C 1017.89 190.541 1009.29 197.613 1002.99 202.642 z"/>
<path transform="translate(0,0)" fill="rgb(191,59,126)" d="M 1082.53 269.316 C 1082.88 269.143 1083.55 269.268 1084.05 269.292 L 1086.42 275.125 C 1086.87 275.45 1087.33 275.774 1087.79 276.099 C 1090.57 274.402 1098.57 267.273 1100.35 265.978 C 1105.5 262.21 1116.76 261.87 1123.05 261.451 C 1127.08 257.925 1116.08 245.916 1118.37 239.335 C 1126.52 257.446 1133.59 278.353 1141.4 295.214 C 1136.86 297.218 1134.44 298.339 1130.25 300.937 C 1121.23 305.931 1110.25 311.121 1100.8 315.376 C 1095.05 299.912 1088.02 284.68 1082.53 269.316 z"/>
<path transform="translate(0,0)" fill="rgb(180,179,251)" d="M 980.341 186.265 L 982.134 188.17 C 968.82 210.555 944.238 259.806 937.709 284.252 L 933.725 294.094 C 931.331 295.071 930.148 298.949 928.35 302.122 L 928.647 301.549 L 928.272 300.779 C 930.198 297.049 931.469 292.796 931.397 288.577 L 931.376 287.763 C 933.903 280.164 937.13 272.178 940.022 264.656 C 953.635 237.024 960.901 213.308 980.341 186.265 z"/>
<path transform="translate(0,0)" fill="rgb(221,152,246)" d="M 980.341 186.265 C 985.4 178.523 992.027 167.38 998.948 161.726 L 1000.2 161.99 L 1000.16 160.903 L 999.37 161.419 L 1000.55 161.345 C 998.088 166.383 986.255 182.225 982.134 188.17 L 980.341 186.265 z"/>
<path transform="translate(0,0)" fill="rgb(191,59,126)" d="M 1274.95 304.847 C 1288.49 297.323 1319.02 309.042 1326.59 322.937 C 1332.34 333.482 1330.75 349.573 1335.74 357.053 C 1326.33 390.355 1313 422.419 1296.02 452.57 C 1287.3 448.168 1263.68 440.447 1253.85 437.179 C 1263.26 419.729 1273.1 398.584 1279.97 380.02 C 1287.73 359.051 1304.36 315.903 1274.95 304.847 z"/>
<path transform="translate(0,0)" fill="rgb(43,110,207)" d="M 923.91 483.899 C 924.967 503.624 932.676 508.768 951.541 510.693 L 952.818 509.962 C 952.475 507.625 952.134 506.498 951.461 504.223 L 952.351 503.25 C 958.193 519.13 972.742 540.955 989.946 545.374 C 1001.34 551.774 1013.62 554.822 1025.92 558.959 C 1029 559.995 1036.46 562.051 1039.03 563.454 L 1037.66 564.53 L 1023.13 559.951 C 1035.01 578.373 1027.1 573.765 1017.24 582.339 C 1017.78 584.945 1017.32 583.986 1019.44 585.926 C 1023.45 586.939 1026.48 587.024 1029.78 589.266 L 1027.99 589.844 C 1021.16 588.727 1012.6 585.146 1005.71 583.449 C 960.733 572.369 915.074 536.452 923.91 483.899 z"/>
<path transform="translate(0,0)" fill="url(#Gradient1)" d="M 933.876 356.74 C 938.803 343.152 942.374 328.786 947.367 315.218 C 974.212 328.992 1000.31 344.17 1025.56 360.689 C 1012.64 369.187 1000.6 378.617 988.593 388.35 C 969.759 375.59 953.957 367.203 933.876 356.74 z"/>
<path transform="translate(0,0)" fill="rgb(129,80,175)" d="M 1057.33 734.798 C 1068.94 742.176 1100.96 761.342 1113.43 765.966 L 1111.62 772.084 C 1106.34 784.369 1103.39 796.913 1098.91 807.478 C 1077.6 798.389 1041.86 776.07 1022.73 762.661 C 1032.24 754.033 1049.46 745.381 1057.33 734.798 z"/>
<path transform="translate(0,0)" fill="rgb(247,113,101)" d="M 1232.36 477.72 C 1240.68 480.478 1249.01 483.182 1257.37 485.831 C 1262.35 488.461 1268.27 490.209 1273.79 491.366 C 1261.44 513.765 1242.56 543.076 1226.62 563.192 C 1222.94 556.57 1203.08 534.63 1197.5 528.915 C 1208.56 515.575 1223.9 492.722 1232.36 477.72 z"/>
<path transform="translate(0,0)" fill="rgb(247,113,101)" d="M 1115.27 359.377 C 1128.44 352.305 1141.93 345.903 1155.06 338.803 C 1163.55 364.051 1170.15 389.692 1176.61 415.527 C 1169.63 415.44 1136.26 407.739 1128.39 405.901 C 1124.15 390.355 1119.78 374.846 1115.27 359.377 z"/>
</svg>